<svg id="visual" viewBox="0 0 900 600" width="900" height="600" xmlns="http://www.w3.org/2000/svg" xmlns:xlink="http://www.w3.org/1999/xlink" version="1.1"><rect x="0" y="0" width="900" height="600" fill="#001220"></rect><defs><linearGradient id="grad1_0" x1="33.3%" y1="0%" x2="100%" y2="100%"><stop offset="20%" stop-color="#fbae3c" stop-opacity="1"></stop><stop offset="80%" stop-color="#fbae3c" stop-opacity="1"></stop></linearGradient></defs><defs><linearGradient id="grad1_1" x1="33.3%" y1="0%" x2="100%" y2="100%"><stop offset="20%" stop-color="#fbae3c" stop-opacity="1"></stop><stop offset="80%" stop-color="#96446e" stop-opacity="1"></stop></linearGradient></defs><defs><linearGradient id="grad1_2" x1="33.3%" y1="0%" x2="100%" y2="100%"><stop offset="20%" stop-color="#001220" stop-opacity="1"></stop><stop offset="80%" stop-color="#96446e" stop-opacity="1"></stop></linearGradient></defs><defs><linearGradient id="grad2_0" x1="0%" y1="0%" x2="66.7%" y2="100%"><stop offset="20%" stop-color="#fbae3c" stop-opacity="1"></stop><stop offset="80%" stop-color="#fbae3c" stop-opacity="1"></stop></linearGradient></defs><defs><linearGradient id="grad2_1" x1="0%" y1="0%" x2="66.7%" y2="100%"><stop offset="20%" stop-color="#96446e" stop-opacity="1"></stop><stop offset="80%" stop-color="#fbae3c" stop-opacity="1"></stop></linearGradient></defs><defs><linearGradient id="grad2_2" x1="0%" y1="0%" x2="66.7%" y2="100%"><stop offset="20%" stop-color="#96446e" stop-opacity="1"></stop><stop offset="80%" stop-color="#001220" stop-opacity="1"></stop></linearGradient></defs><g transform="translate(900, 0)"><path d="M0 513.8C-46.2 513.2 -92.5 512.7 -133 496.3C-173.5 479.9 -208.3 447.6 -241.5 418.3C-274.7 388.9 -306.4 362.4 -328.1 328.1C-349.8 293.7 -361.5 251.5 -371.5 214.5C-381.6 177.5 -390 145.7 -413.4 110.8C-436.9 75.9 -475.3 37.9 -513.8 0L0 0Z" fill="#3d3056"></path><path d="M0 342.5C-30.8 342.2 -61.6 341.8 -88.7 330.9C-115.7 319.9 -138.8 298.4 -161 278.9C-183.2 259.3 -204.3 241.6 -218.7 218.7C-233.2 195.8 -241 167.7 -247.7 143C-254.4 118.3 -260 97.1 -275.6 73.8C-291.2 50.6 -316.9 25.3 -342.5 0L0 0Z" fill="#e1685e"></path><path d="M0 171.3C-15.4 171.1 -30.8 170.9 -44.3 165.4C-57.8 160 -69.4 149.2 -80.5 139.4C-91.6 129.6 -102.1 120.8 -109.4 109.4C-116.6 97.9 -120.5 83.8 -123.8 71.5C-127.2 59.2 -130 48.6 -137.8 36.9C-145.6 25.3 -158.4 12.6 -171.3 0L0 0Z" fill="#fbae3c"></path></g><g transform="translate(0, 600)"><path d="M0 -513.8C34.7 -474.2 69.5 -434.7 113.9 -425C158.3 -415.4 212.3 -435.6 240.5 -416.6C268.7 -397.5 271.1 -339 311.8 -311.8C352.6 -284.6 431.8 -288.7 445 -256.9C458.1 -225.1 405.2 -157.5 405.7 -108.7C406.2 -59.9 460 -30 513.8 0L0 0Z" fill="#3d3056"></path><path d="M0 -342.5C23.2 -316.1 46.3 -289.8 75.9 -283.3C105.5 -276.9 141.5 -290.4 160.3 -277.7C179.1 -265 180.7 -226 207.9 -207.9C235.1 -189.8 287.9 -192.5 296.6 -171.3C305.4 -150.1 270.1 -105 270.5 -72.5C270.8 -39.9 306.6 -20 342.5 0L0 0Z" fill="#e1685e"></path><path d="M0 -171.3C11.6 -158.1 23.2 -144.9 38 -141.7C52.8 -138.5 70.8 -145.2 80.2 -138.9C89.6 -132.5 90.4 -113 103.9 -103.9C117.5 -94.9 143.9 -96.2 148.3 -85.6C152.7 -75 135.1 -52.5 135.2 -36.2C135.4 -20 153.3 -10 171.3 0L0 0Z" fill="#fbae3c"></path></g></svg>