<svg id="visual" viewBox="0 0 900 600" width="900" height="600" xmlns="http://www.w3.org/2000/svg" xmlns:xlink="http://www.w3.org/1999/xlink" version="1.1"><rect x="0" y="0" width="900" height="600" fill="#001220"></rect><path d="M0 402L21.5 397.5C43 393 86 384 128.8 375.8C171.7 367.7 214.3 360.3 257.2 361.7C300 363 343 373 385.8 375.7C428.7 378.3 471.3 373.7 514.2 376.3C557 379 600 389 642.8 393.2C685.7 397.3 728.3 395.7 771.2 393.2C814 390.7 857 387.3 878.5 385.7L900 384L900 601L878.5 601C857 601 814 601 771.2 601C728.3 601 685.7 601 642.8 601C600 601 557 601 514.2 601C471.3 601 428.7 601 385.8 601C343 601 300 601 257.2 601C214.3 601 171.7 601 128.8 601C86 601 43 601 21.5 601L0 601Z" fill="#fa7268"></path><path d="M0 415L21.5 420.2C43 425.3 86 435.7 128.8 445.2C171.7 454.7 214.3 463.3 257.2 455.2C300 447 343 422 385.8 419C428.7 416 471.3 435 514.2 439.7C557 444.3 600 434.7 642.8 430.2C685.7 425.7 728.3 426.3 771.2 430.7C814 435 857 443 878.5 447L900 451L900 601L878.5 601C857 601 814 601 771.2 601C728.3 601 685.7 601 642.8 601C600 601 557 601 514.2 601C471.3 601 428.7 601 385.8 601C343 601 300 601 257.2 601C214.3 601 171.7 601 128.8 601C86 601 43 601 21.5 601L0 601Z" fill="#ef5f67"></path><path d="M0 482L21.5 485.3C43 488.7 86 495.3 128.8 495.8C171.7 496.3 214.3 490.7 257.2 492C300 493.3 343 501.7 385.8 499.7C428.7 497.7 471.3 485.3 514.2 478.5C557 471.7 600 470.3 642.8 466.3C685.7 462.3 728.3 455.7 771.2 450.3C814 445 857 441 878.5 439L900 437L900 601L878.5 601C857 601 814 601 771.2 601C728.3 601 685.7 601 642.8 601C600 601 557 601 514.2 601C471.3 601 428.7 601 385.8 601C343 601 300 601 257.2 601C214.3 601 171.7 601 128.8 601C86 601 43 601 21.5 601L0 601Z" fill="#e34c67"></path><path d="M0 487L21.5 494.7C43 502.3 86 517.7 128.8 519.8C171.7 522 214.3 511 257.2 512C300 513 343 526 385.8 529.5C428.7 533 471.3 527 514.2 524.2C557 521.3 600 521.7 642.8 516.2C685.7 510.7 728.3 499.3 771.2 502C814 504.7 857 521.3 878.5 529.7L900 538L900 601L878.5 601C857 601 814 601 771.2 601C728.3 601 685.7 601 642.8 601C600 601 557 601 514.2 601C471.3 601 428.7 601 385.8 601C343 601 300 601 257.2 601C214.3 601 171.7 601 128.8 601C86 601 43 601 21.5 601L0 601Z" fill="#d53867"></path><path d="M0 569L21.5 562.7C43 556.3 86 543.7 128.8 541.8C171.7 540 214.3 549 257.2 550.8C300 552.7 343 547.3 385.8 545C428.7 542.7 471.3 543.3 514.2 548.2C557 553 600 562 642.8 563.8C685.7 565.7 728.3 560.3 771.2 556.8C814 553.3 857 551.7 878.5 550.8L900 550L900 601L878.5 601C857 601 814 601 771.2 601C728.3 601 685.7 601 642.8 601C600 601 557 601 514.2 601C471.3 601 428.7 601 385.8 601C343 601 300 601 257.2 601C214.3 601 171.7 601 128.8 601C86 601 43 601 21.5 601L0 601Z" fill="#c62368"></path></svg>